<svg xmlns="http://www.w3.org/2000/svg" xmlns:xlink="http://www.w3.org/1999/xlink" width="500" zoomAndPan="magnify" viewBox="0 0 375 374.999991" height="500" preserveAspectRatio="xMidYMid meet" version="1.0"><defs><clipPath id="2f6170978d"><path d="M 30.085938 30.085938 L 124 30.085938 L 124 345 L 30.085938 345 Z M 30.085938 30.085938 " clip-rule="nonzero"/></clipPath><clipPath id="f25cbeb3c5"><path d="M 77 30.085938 C 102.910156 30.085938 123.914062 51.089844 123.914062 77 L 123.914062 298 C 123.914062 323.910156 102.910156 344.914062 77 344.914062 C 51.089844 344.914062 30.085938 323.910156 30.085938 298 L 30.085938 77 C 30.085938 51.089844 51.089844 30.085938 77 30.085938 " clip-rule="nonzero"/></clipPath><clipPath id="e0006d7055"><path d="M 251.085938 30.085938 L 345 30.085938 L 345 345 L 251.085938 345 Z M 251.085938 30.085938 " clip-rule="nonzero"/></clipPath><clipPath id="0bc1875c96"><path d="M 298 30.085938 C 323.910156 30.085938 344.914062 51.089844 344.914062 77 L 344.914062 298 C 344.914062 323.910156 323.910156 344.914062 298 344.914062 C 272.089844 344.914062 251.085938 323.910156 251.085938 298 L 251.085938 77 C 251.085938 51.089844 272.089844 30.085938 298 30.085938 " clip-rule="nonzero"/></clipPath><clipPath id="528a6f11c9"><path d="M 30.085938 30.085938 L 345 30.085938 L 345 90 L 30.085938 90 Z M 30.085938 30.085938 " clip-rule="nonzero"/></clipPath><clipPath id="31168ed483"><path d="M 60 30.085938 L 315 30.085938 C 331.523438 30.085938 344.914062 43.476562 344.914062 60 C 344.914062 76.523438 331.523438 89.914062 315 89.914062 L 60 89.914062 C 43.476562 89.914062 30.085938 76.523438 30.085938 60 C 30.085938 43.476562 43.476562 30.085938 60 30.085938 " clip-rule="nonzero"/></clipPath><clipPath id="9ef05fa3e3"><path d="M 30.085938 286.085938 L 345 286.085938 L 345 345 L 30.085938 345 Z M 30.085938 286.085938 " clip-rule="nonzero"/></clipPath><clipPath id="64ce1b46ab"><path d="M 59.5 286.085938 L 315.5 286.085938 C 323.300781 286.085938 330.785156 289.183594 336.300781 294.699219 C 341.816406 300.214844 344.914062 307.699219 344.914062 315.5 C 344.914062 323.300781 341.816406 330.785156 336.300781 336.300781 C 330.785156 341.816406 323.300781 344.914062 315.5 344.914062 L 59.5 344.914062 C 51.699219 344.914062 44.214844 341.816406 38.699219 336.300781 C 33.183594 330.785156 30.085938 323.300781 30.085938 315.5 C 30.085938 307.699219 33.183594 300.214844 38.699219 294.699219 C 44.214844 289.183594 51.699219 286.085938 59.5 286.085938 " clip-rule="nonzero"/></clipPath><clipPath id="32acb68aee"><path d="M 58.898438 44.566406 L 316.148438 44.566406 L 316.148438 301 L 58.898438 301 Z M 58.898438 44.566406 " clip-rule="nonzero"/></clipPath></defs><g clip-path="url(#2f6170978d)"><g clip-path="url(#f25cbeb3c5)"><path fill="#f8a4a4" d="M 30.085938 30.085938 L 123.835938 30.085938 L 123.835938 344.734375 L 30.085938 344.734375 Z M 30.085938 30.085938 " fill-opacity="1" fill-rule="nonzero"/></g></g><g clip-path="url(#e0006d7055)"><g clip-path="url(#0bc1875c96)"><path fill="#f8a4a4" d="M 251.085938 30.085938 L 344.835938 30.085938 L 344.835938 344.734375 L 251.085938 344.734375 Z M 251.085938 30.085938 " fill-opacity="1" fill-rule="nonzero"/></g></g><g clip-path="url(#528a6f11c9)"><g clip-path="url(#31168ed483)"><path fill="#f8a4a4" d="M 30.085938 30.085938 L 344.734375 30.085938 L 344.734375 89.851562 L 30.085938 89.851562 Z M 30.085938 30.085938 " fill-opacity="1" fill-rule="nonzero"/></g></g><g clip-path="url(#9ef05fa3e3)"><g clip-path="url(#64ce1b46ab)"><path fill="#f8a4a4" d="M 30.085938 286.085938 L 344.734375 286.085938 L 344.734375 344.679688 L 30.085938 344.679688 Z M 30.085938 286.085938 " fill-opacity="1" fill-rule="nonzero"/></g></g><g clip-path="url(#32acb68aee)"><path fill="#f8a4a4" d="M 187.578125 44.660156 C 116.5 44.660156 58.898438 102.300781 58.898438 173.429688 C 58.898438 237.3125 105.46875 290.382812 166.410156 300.417969 L 166.410156 213.121094 L 133.65625 213.121094 L 133.65625 174.878906 L 166.410156 174.878906 L 166.410156 147.121094 C 166.410156 117.019531 190.8125 96.617188 220.890625 96.617188 C 234.261719 96.617188 242.617188 98.621094 242.617188 98.621094 L 242.617188 130.730469 L 220.890625 130.730469 C 211.867188 130.730469 204.515625 138.089844 204.515625 147.121094 L 204.515625 174.878906 L 239.609375 174.878906 L 234.707031 213.121094 L 204.515625 213.121094 L 204.515625 300.972656 C 267.460938 292.613281 316.039062 238.652344 316.039062 173.429688 C 316.148438 102.300781 258.550781 44.660156 187.578125 44.660156 Z M 187.578125 44.660156 " fill-opacity="1" fill-rule="nonzero"/></g></svg>