<svg xmlns="http://www.w3.org/2000/svg" xmlns:xlink="http://www.w3.org/1999/xlink" width="500" zoomAndPan="magnify" viewBox="0 0 375 374.999991" height="500" preserveAspectRatio="xMidYMid meet" version="1.0"><defs><clipPath id="fd295a68de"><path d="M 26.363281 26.363281 L 348.863281 26.363281 L 348.863281 348.863281 L 26.363281 348.863281 Z M 26.363281 26.363281 " clip-rule="nonzero"/></clipPath></defs><g clip-path="url(#fd295a68de)"><path fill="#f8a4a4" d="M 187.542969 55.441406 C 230.578125 55.441406 235.664062 55.582031 252.695312 56.359375 C 268.378906 57.066406 276.929688 59.679688 282.652344 61.941406 C 290.144531 64.839844 295.515625 68.371094 301.167969 74.027344 C 306.820312 79.679688 310.28125 85.046875 313.25 92.539062 C 315.441406 98.191406 318.054688 106.742188 318.832031 122.5 C 319.609375 139.527344 319.75 144.617188 319.75 187.648438 C 319.75 230.683594 319.609375 235.769531 318.832031 252.800781 C 318.125 268.488281 315.511719 277.035156 313.25 282.761719 C 310.351562 290.25 306.820312 295.621094 301.167969 301.273438 C 295.515625 306.925781 290.144531 310.390625 282.652344 313.355469 C 277 315.546875 268.449219 318.160156 252.695312 318.9375 C 235.664062 319.714844 230.578125 319.859375 187.542969 319.859375 C 144.511719 319.859375 139.421875 319.714844 122.394531 318.9375 C 106.707031 318.230469 98.15625 315.617188 92.433594 313.355469 C 84.941406 310.460938 79.574219 306.925781 73.917969 301.273438 C 68.265625 295.621094 64.804688 290.25 61.835938 282.761719 C 59.644531 277.105469 57.03125 268.558594 56.253906 252.800781 C 55.476562 235.769531 55.335938 230.683594 55.335938 187.648438 C 55.335938 144.617188 55.476562 139.527344 56.253906 122.5 C 56.960938 106.8125 59.574219 98.261719 61.835938 92.539062 C 64.734375 85.046875 68.265625 79.679688 73.917969 74.027344 C 79.574219 68.371094 84.941406 64.910156 92.433594 61.941406 C 98.085938 59.75 106.636719 57.136719 122.394531 56.359375 C 139.421875 55.582031 144.511719 55.441406 187.542969 55.441406 M 187.542969 26.398438 C 143.734375 26.398438 138.292969 26.613281 121.050781 27.390625 C 103.878906 28.164062 92.148438 30.921875 81.902344 34.878906 C 71.304688 38.976562 62.332031 44.488281 53.355469 53.460938 C 44.453125 62.4375 38.941406 71.410156 34.84375 82.011719 C 30.886719 92.257812 28.128906 103.984375 27.351562 121.15625 C 26.574219 138.328125 26.363281 143.839844 26.363281 187.578125 C 26.363281 231.390625 26.574219 236.828125 27.351562 254.070312 C 28.128906 271.242188 30.886719 282.972656 34.84375 293.21875 C 38.941406 303.816406 44.453125 312.792969 53.425781 321.765625 C 62.402344 330.738281 71.375 336.25 81.976562 340.347656 C 92.222656 344.304688 103.949219 347.0625 121.121094 347.839844 C 138.292969 348.617188 143.804688 348.828125 187.613281 348.828125 C 231.425781 348.828125 236.867188 348.617188 254.105469 347.839844 C 271.277344 347.0625 283.007812 344.304688 293.253906 340.347656 C 303.851562 336.25 312.828125 330.738281 321.800781 321.765625 C 330.773438 312.792969 336.285156 303.816406 340.382812 293.21875 C 344.339844 282.972656 347.097656 271.242188 347.875 254.070312 C 348.652344 236.902344 348.863281 231.390625 348.863281 187.578125 C 348.863281 143.769531 348.652344 138.328125 347.875 121.085938 C 347.097656 103.914062 344.339844 92.183594 340.382812 81.941406 C 336.285156 71.339844 330.773438 62.367188 321.800781 53.390625 C 312.828125 44.417969 303.851562 38.90625 293.253906 34.808594 C 283.007812 30.851562 271.277344 28.09375 254.105469 27.316406 C 236.867188 26.613281 231.355469 26.398438 187.542969 26.398438 " fill-opacity="1" fill-rule="nonzero"/></g><path fill="#f8a4a4" d="M 187.542969 104.832031 C 141.824219 104.832031 104.796875 141.859375 104.796875 187.578125 C 104.796875 233.296875 141.894531 270.394531 187.613281 270.394531 C 233.332031 270.394531 270.429688 233.367188 270.429688 187.578125 C 270.359375 141.859375 233.261719 104.832031 187.542969 104.832031 M 187.542969 241.351562 C 157.867188 241.351562 133.839844 217.328125 133.839844 187.648438 C 133.839844 157.972656 157.867188 133.945312 187.542969 133.945312 C 217.222656 133.945312 241.246094 157.972656 241.246094 187.648438 C 241.316406 217.257812 217.222656 241.351562 187.542969 241.351562 " fill-opacity="1" fill-rule="nonzero"/><path fill="#f8a4a4" d="M 292.96875 101.582031 C 292.96875 112.253906 284.277344 120.945312 273.609375 120.945312 C 262.9375 120.945312 254.25 112.253906 254.25 101.582031 C 254.25 90.914062 262.9375 82.222656 273.609375 82.222656 C 284.277344 82.222656 292.96875 90.84375 292.96875 101.582031 " fill-opacity="1" fill-rule="nonzero"/></svg>