<svg xmlns="http://www.w3.org/2000/svg" xmlns:xlink="http://www.w3.org/1999/xlink" width="500" zoomAndPan="magnify" viewBox="0 0 375 374.999991" height="500" preserveAspectRatio="xMidYMid meet" version="1.0"><defs><clipPath id="116cdf4271"><path d="M 30 29.960938 L 344.960938 29.960938 L 344.960938 344.960938 L 30 344.960938 Z M 30 29.960938 " clip-rule="nonzero"/></clipPath></defs><g clip-path="url(#116cdf4271)"><path fill="#f8a4a4" d="M 318.644531 29.960938 L 56.433594 29.960938 C 41.9375 29.960938 30.277344 41.777344 30.277344 56.117188 L 30.277344 318.800781 C 30.277344 333.300781 42.09375 344.960938 56.433594 344.960938 L 318.488281 344.960938 C 332.984375 344.960938 344.644531 333.140625 344.644531 318.800781 L 344.644531 56.117188 C 344.804688 41.777344 333.140625 29.960938 318.644531 29.960938 Z M 123.40625 289.808594 L 76.917969 289.808594 L 76.917969 150.191406 L 123.40625 150.191406 Z M 100.082031 133.332031 C 85.429688 133.332031 73.609375 121.511719 73.609375 106.859375 C 73.609375 92.203125 85.429688 80.386719 100.082031 80.386719 C 114.738281 80.386719 126.554688 92.203125 126.554688 106.859375 C 126.554688 121.511719 114.738281 133.332031 100.082031 133.332031 Z M 298.316406 289.808594 L 251.671875 289.808594 L 250.570312 206.921875 C 250.570312 206.921875 251.671875 184.859375 227.5625 185.019531 C 203.453125 185.175781 200.144531 206.921875 200.144531 206.921875 L 200.144531 289.808594 L 153.1875 289.808594 L 153.1875 150.191406 L 198.253906 150.191406 L 198.253906 169.417969 C 198.253906 169.417969 200.144531 163.113281 210.546875 155.707031 C 220.945312 148.300781 238.121094 146.726562 245.527344 147.042969 C 252.933594 147.355469 263.019531 146.097656 279.878906 157.757812 C 298 170.207031 298.472656 202.824219 298.472656 202.824219 Z M 298.316406 289.808594 " fill-opacity="1" fill-rule="nonzero"/></g></svg>