<svg xmlns="http://www.w3.org/2000/svg" xmlns:xlink="http://www.w3.org/1999/xlink" width="500" zoomAndPan="magnify" viewBox="0 0 375 374.999991" height="500" preserveAspectRatio="xMidYMid meet" version="1.0"><defs><clipPath id="21fece3daa"><path d="M 30.085938 30.085938 L 345.085938 30.085938 L 345.085938 345.085938 L 30.085938 345.085938 Z M 30.085938 30.085938 " clip-rule="nonzero"/></clipPath></defs><g clip-path="url(#21fece3daa)"><path fill="#f8a4a4" d="M 305.710938 345.085938 L 69.460938 345.085938 C 47.722656 345.085938 30.085938 327.445312 30.085938 305.710938 L 30.085938 69.460938 C 30.085938 47.722656 47.722656 30.085938 69.460938 30.085938 L 305.710938 30.085938 C 327.445312 30.085938 345.085938 47.722656 345.085938 69.460938 L 345.085938 305.710938 C 345.085938 327.445312 327.445312 345.085938 305.710938 345.085938 Z M 151.042969 267.59375 C 225.304688 267.59375 265.941406 206.011719 265.941406 152.699219 C 265.941406 150.964844 265.941406 149.234375 265.863281 147.5 C 273.738281 141.832031 280.589844 134.664062 286.023438 126.554688 C 278.777344 129.78125 270.980469 131.90625 262.789062 132.933594 C 271.136719 127.96875 277.515625 120.015625 280.589844 110.566406 C 272.792969 115.214844 264.128906 118.519531 254.914062 120.332031 C 247.511719 112.457031 237.039062 107.574219 225.464844 107.574219 C 203.175781 107.574219 185.0625 125.6875 185.0625 147.972656 C 185.0625 151.125 185.457031 154.195312 186.089844 157.1875 C 152.539062 155.53125 122.773438 139.390625 102.847656 114.976562 C 99.382812 120.960938 97.414062 127.890625 97.414062 135.292969 C 97.414062 149.3125 104.582031 161.675781 115.371094 168.921875 C 108.753906 168.683594 102.535156 166.875 97.101562 163.878906 C 97.101562 164.039062 97.101562 164.195312 97.101562 164.433594 C 97.101562 183.960938 111.039062 200.34375 129.46875 204.042969 C 126.082031 204.988281 122.535156 205.460938 118.835938 205.460938 C 116.238281 205.460938 113.71875 205.222656 111.277344 204.75 C 116.394531 220.816406 131.355469 232.472656 148.996094 232.785156 C 135.136719 243.65625 117.734375 250.113281 98.832031 250.113281 C 95.605469 250.113281 92.375 249.953125 89.226562 249.5625 C 107.023438 260.902344 128.285156 267.59375 151.042969 267.59375 " fill-opacity="1" fill-rule="nonzero"/></g></svg>