<svg xmlns="http://www.w3.org/2000/svg" xmlns:xlink="http://www.w3.org/1999/xlink" width="500" zoomAndPan="magnify" viewBox="0 0 375 374.999991" height="500" preserveAspectRatio="xMidYMid meet" version="1.0"><defs><clipPath id="919a66f430"><path d="M 30.140625 30.140625 L 345.140625 30.140625 L 345.140625 345.140625 L 30.140625 345.140625 Z M 30.140625 30.140625 " clip-rule="nonzero"/></clipPath></defs><g clip-path="url(#919a66f430)"><path fill="#f8a4a4" d="M 345.140625 297.269531 C 345.140625 323.667969 323.667969 345.140625 297.269531 345.140625 L 78.011719 345.140625 C 51.609375 345.140625 30.140625 323.667969 30.140625 297.269531 L 30.140625 78.011719 C 30.140625 51.609375 51.609375 30.140625 78.011719 30.140625 L 297.269531 30.140625 C 323.667969 30.140625 345.140625 51.609375 345.140625 78.011719 Z M 345.140625 297.269531 " fill-opacity="1" fill-rule="nonzero"/></g><path fill="#ffffff" d="M 299.296875 190.132812 C 299.296875 207.550781 299.296875 226.007812 295.40625 242.878906 C 292.667969 254.765625 282.972656 263.472656 271.25 264.789062 C 243.589844 267.855469 215.546875 267.910156 187.667969 267.855469 C 159.734375 267.855469 131.800781 267.855469 104.082031 264.789062 C 92.417969 263.472656 82.667969 254.765625 79.929688 242.878906 C 76.039062 226.007812 76.039062 207.550781 76.039062 190.132812 C 76.039062 172.714844 76.09375 154.257812 79.929688 137.386719 C 82.667969 125.5 92.363281 116.792969 104.082031 115.476562 C 131.800781 112.355469 159.789062 112.355469 187.667969 112.355469 C 215.546875 112.355469 243.535156 112.355469 271.25 115.476562 C 282.917969 116.792969 292.667969 125.5 295.40625 137.386719 C 299.296875 154.257812 299.296875 172.714844 299.296875 190.132812 Z M 299.296875 190.132812 " fill-opacity="1" fill-rule="nonzero"/><path fill="#f8a4a4" d="M 164.167969 148.613281 L 164.167969 232.035156 L 228.964844 190.296875 Z M 164.167969 148.613281 " fill-opacity="1" fill-rule="nonzero"/></svg>